<?xml version="1.0" encoding="UTF-8" standalone="no"?><!DOCTYPE svg PUBLIC "-//W3C//DTD SVG 1.1//EN" "http://www.w3.org/Graphics/SVG/1.1/DTD/svg11.dtd"><svg width="100%" height="100%" viewBox="0 0 2000 732" version="1.1" xmlns="http://www.w3.org/2000/svg" xmlns:xlink="http://www.w3.org/1999/xlink" xml:space="preserve" xmlns:serif="http://www.serif.com/" style="fill-rule:evenodd;clip-rule:evenodd;stroke-linejoin:round;stroke-miterlimit:2;"><g><path d="M86.288,558.656l0,-5.062c12.01,0.375 21.026,-4.505 27.042,-14.646c6.01,-10.135 9.021,-30.047 9.021,-59.729l0,-225.896c0,-30.042 -3.01,-50.219 -9.021,-60.542c-6.016,-10.333 -15.031,-15.125 -27.042,-14.375l0,-5.062l146.458,0c22.542,0 44.792,2.26 66.75,6.771c21.969,4.5 41.875,13.229 59.708,26.187c17.844,12.948 32.026,32.099 42.542,57.458c10.526,25.349 15.792,58.677 15.792,99.979c0,41.323 -5.266,74.75 -15.792,100.292c-10.516,25.531 -24.599,45.146 -42.25,58.854c-17.641,13.708 -37.448,23.099 -59.417,28.167c-21.974,5.073 -44.417,7.604 -67.333,7.604l-146.458,0Zm89.562,-375.187l0,365.042l72.687,0c25.901,0 47.396,-7.979 64.479,-23.937c17.094,-15.958 29.865,-37.922 38.312,-65.896c8.458,-27.984 12.687,-59.63 12.687,-94.937c0,-35.677 -4.323,-67.031 -12.958,-94.062c-8.641,-27.042 -21.51,-48.167 -38.604,-63.375c-17.083,-15.219 -38.391,-22.833 -63.917,-22.833l-72.687,0l0.001,-0.002Z" style="fill-rule:nonzero;"/><path d="M772.989,535.552c-4.141,8.266 -9.87,14.182 -17.187,17.75c-7.323,3.573 -15.115,5.354 -23.375,5.354c-18.406,0 -32.302,-5.531 -41.687,-16.604c-9.391,-11.083 -16.906,-24.135 -22.542,-39.167c-3.75,-10.885 -7.135,-22.714 -10.146,-35.479c-3,-12.776 -5.625,-25.734 -7.875,-38.875c-1.5,22.156 -6.198,43.182 -14.083,63.083c-7.891,19.906 -19.812,36.057 -35.771,48.458c-15.958,12.391 -37.271,18.583 -63.937,18.583c-24.417,0 -44.891,-6.755 -61.417,-20.271c-16.516,-13.526 -24.021,-33.437 -22.521,-59.729c1.125,-16.885 5.63,-31.339 13.521,-43.354c7.885,-12.026 17.74,-22.635 29.562,-31.833c11.833,-9.208 24.13,-17.755 36.896,-25.646c12.776,-7.885 24.51,-16.151 35.208,-24.792c10.708,-8.635 18.88,-18.589 24.521,-29.854c8.26,-15.76 10.323,-28.714 6.187,-38.854c-4.125,-10.151 -11.917,-16.63 -23.375,-19.437c-11.458,-2.818 -24.323,-1.031 -38.583,5.354c-13.141,6 -25.724,14.542 -37.75,25.625c-12.016,11.083 -21.219,20.937 -27.604,29.562l-18.021,-47.312c16.526,-7.885 35.021,-14.083 55.479,-18.583c20.469,-4.51 41.594,-6.771 63.375,-6.771c27.792,0 49.385,3.854 64.792,11.562c15.401,7.698 27.042,19.62 34.917,35.771c7.885,16.141 14.276,36.604 19.167,61.396c4.125,19.156 7.875,38.682 11.25,58.583c3.385,19.906 7.427,38.594 12.125,56.062c4.693,17.458 10.984,32.198 18.875,44.208c3.375,5.266 8.531,9.969 15.479,14.104c6.958,4.125 13.812,3.37 20.562,-2.271l3.958,3.375l-0,0.002Zm-137.458,-189.833c-2.625,-10.135 -5.823,-19.901 -9.583,-29.292c-3.75,-9.385 -8.448,-17.651 -14.083,-24.792c2.26,9.391 2.359,19.25 0.292,29.583c-2.073,10.323 -5.354,19.427 -9.854,27.312c-6.016,10.891 -13.812,20.656 -23.396,29.292c-9.573,8.641 -19.427,17.094 -29.562,25.354c-10.141,8.266 -19.25,17.375 -27.333,27.333c-8.073,9.948 -13.604,21.677 -16.604,35.187c-2.641,13.906 -1.427,27.146 3.646,39.729c5.083,12.583 15.693,20.937 31.833,25.062c13.901,3.375 26.859,2.437 38.875,-2.812c12.01,-5.26 22.339,-13.052 30.979,-23.375c8.635,-10.333 15.026,-21.318 19.167,-32.958c6.375,-18.401 10.026,-39.339 10.958,-62.812c0.943,-23.469 -0.833,-44.406 -5.333,-62.812l-0.002,0.001Z" style="fill-rule:nonzero;"/><path d="M1122.245,535.552c-4.125,8.266 -9.948,14.182 -17.458,17.75c-7.516,3.573 -15.406,5.354 -23.667,5.354c-16.906,0 -29.771,-4.594 -38.604,-13.792c-8.823,-9.208 -15.854,-20.38 -21.104,-33.521c-8.266,-20.667 -14.37,-42.354 -18.312,-65.062c-3.948,-22.719 -7.802,-45.531 -11.562,-68.437c-3.75,-22.917 -9.76,-44.698 -18.021,-65.354c-5.625,-14.651 -12.948,-24.229 -21.958,-28.729c-9.016,-4.51 -18.687,-5.26 -29.021,-2.25c-10.323,3 -20.74,9.01 -31.25,18.021c-6.391,5.625 -12.495,11.917 -18.312,18.875c-5.823,6.948 -10.99,13.604 -15.5,19.979l0,140.833c0,29.682 3,49.594 9,59.729c6.01,10.141 15.031,15.021 27.062,14.646l0,5.062l-122.812,0l0,-5.062c12.01,0.375 21.026,-4.505 27.042,-14.646c6.01,-10.135 9.021,-30.047 9.021,-59.729l0,-109.271c0,-30.052 -3.01,-50.24 -9.021,-60.562c-6.016,-10.333 -15.031,-15.125 -27.042,-14.375l0,-5.062c16.526,0 33.234,-3.469 50.125,-10.417c16.901,-6.958 29.109,-15.88 36.625,-26.771l0,67.604c8.26,-11.26 17.365,-22.052 27.312,-32.375c9.958,-10.333 20.854,-18.781 32.687,-25.354c11.833,-6.583 24.505,-9.875 38.021,-9.875c13.151,0 25.448,3.573 36.896,10.708c11.458,7.141 20.755,18.594 27.896,34.354c3,6.766 6,14.469 9,23.104c8.26,-11.26 17.464,-22.151 27.604,-32.667c10.135,-10.51 21.125,-19.052 32.958,-25.625c11.833,-6.583 24.505,-9.875 38.021,-9.875c13.151,0 25.448,3.573 36.896,10.708c11.458,7.141 20.755,18.594 27.896,34.354c7.51,15.781 13.427,33.807 17.75,54.083c4.318,20.281 8.167,40.937 11.542,61.979c3.375,21.031 7.5,40.844 12.375,59.437c4.885,18.583 11.464,34.26 19.729,47.021c3.385,5.266 8.552,9.969 15.5,14.104c6.943,4.125 13.797,3.37 20.562,-2.271l3.937,3.375c-3.75,8.266 -9.385,14.182 -16.896,17.75c-7.516,3.573 -15.406,5.354 -23.667,5.354c-17.281,0 -30.328,-4.594 -39.146,-13.792c-8.823,-9.208 -15.865,-20.38 -21.125,-33.521c-8.266,-20.667 -14.281,-42.354 -18.042,-65.062c-3.75,-22.719 -7.599,-45.531 -11.542,-68.437c-3.948,-22.917 -10.042,-44.698 -18.292,-65.354c-5.641,-14.651 -12.969,-24.229 -21.979,-28.729c-9.016,-4.51 -18.687,-5.26 -29.021,-2.25c-10.323,3 -20.552,9.01 -30.687,18.021c-6.016,4.875 -11.557,10.323 -16.625,16.333c-5.073,6 -9.667,11.823 -13.792,17.458c6,21.031 10.781,43.281 14.354,66.75c3.568,23.474 7.792,45.823 12.667,67.042c4.885,21.224 12.026,38.969 21.417,53.229c3.75,5.266 9.005,9.969 15.771,14.104c6.76,4.125 13.714,3.37 20.854,-2.271l3.937,3.375l0.001,0.002Z" style="fill-rule:nonzero;"/><path d="M1384.743,479.219c0,29.682 3,49.594 9,59.729c6.01,10.141 15.031,15.021 27.062,14.646l0,5.062l-122.812,0l0,-5.062c12.01,0.375 21.026,-4.505 27.042,-14.646c6.01,-10.135 9.021,-30.047 9.021,-59.729l0,-109.271c0,-30.052 -3.01,-50.24 -9.021,-60.562c-6.016,-10.333 -15.031,-15.125 -27.042,-14.375l0,-5.062c16.526,0 33.234,-3.469 50.125,-10.417c16.901,-6.958 29.109,-15.88 36.625,-26.771l0,226.458Z" style="fill-rule:nonzero;"/><path d="M1359.389,173.344c10.135,0 18.865,3.573 26.187,10.708c7.333,7.125 11,15.76 11,25.896c0,10.516 -3.667,19.344 -11,26.479c-7.323,7.141 -16.052,10.708 -26.187,10.708c-10.141,0 -18.87,-3.568 -26.187,-10.708c-7.323,-7.135 -10.979,-15.964 -10.979,-26.479c0,-10.135 3.656,-18.771 10.979,-25.896c7.318,-7.135 16.047,-10.708 26.187,-10.708Z" style="fill:#ffa8b6;"/><path d="M1786.401,535.552c-4.125,8.266 -9.948,14.182 -17.458,17.75c-7.516,3.573 -15.406,5.354 -23.667,5.354c-16.906,0 -29.771,-4.594 -38.604,-13.792c-8.823,-9.208 -15.854,-20.38 -21.104,-33.521c-8.266,-20.667 -14.37,-42.354 -18.312,-65.062c-3.948,-22.719 -7.802,-45.531 -11.562,-68.437c-3.75,-22.917 -9.76,-44.698 -18.021,-65.354c-5.625,-14.651 -12.948,-24.229 -21.958,-28.729c-9.016,-4.51 -18.687,-5.26 -29.021,-2.25c-10.323,3 -20.74,9.01 -31.25,18.021c-6.391,5.625 -12.495,11.917 -18.312,18.875c-5.823,6.948 -10.99,13.604 -15.5,19.979l0,140.833c0,29.682 3,49.594 9,59.729c6.01,10.141 15.031,15.021 27.062,14.646l0,5.062l-122.812,0l0,-5.062c12.01,0.375 21.026,-4.505 27.042,-14.646c6.01,-10.135 9.021,-30.047 9.021,-59.729l0,-109.271c0,-30.052 -3.01,-50.24 -9.021,-60.562c-6.016,-10.333 -15.031,-15.125 -27.042,-14.375l0,-5.062c16.526,0 33.234,-3.469 50.125,-10.417c16.901,-6.958 29.109,-15.88 36.625,-26.771l0,67.604c8.26,-11.26 17.365,-22.052 27.312,-32.375c9.958,-10.333 20.854,-18.781 32.687,-25.354c11.833,-6.583 24.505,-9.875 38.021,-9.875c13.151,0 25.448,3.573 36.896,10.708c11.458,7.141 20.755,18.594 27.896,34.354c7.51,15.781 13.422,33.807 17.729,54.083c4.318,20.281 8.167,40.937 11.542,61.979c3.385,21.031 7.521,40.844 12.396,59.437c4.885,18.583 11.464,34.26 19.729,47.021c3.75,5.266 9.005,9.969 15.771,14.104c6.76,4.125 13.714,3.37 20.854,-2.271l3.937,3.375l-0.001,0.001Z" style="fill-rule:nonzero;"/><path d="M1877.649,479.219c0,29.682 3,49.594 9,59.729c6.01,10.141 15.031,15.021 27.062,14.646l0,5.062l-122.812,0l0,-5.062c12.01,0.375 21.026,-4.505 27.042,-14.646c6.01,-10.135 9.021,-30.047 9.021,-59.729l0,-109.271c0,-30.052 -3.01,-50.24 -9.021,-60.562c-6.016,-10.333 -15.031,-15.125 -27.042,-14.375l0,-5.062c16.526,0 33.234,-3.469 50.125,-10.417c16.901,-6.958 29.109,-15.88 36.625,-26.771l0,226.458Z" style="fill-rule:nonzero;"/><path d="M1852.295,173.344c10.135,0 18.865,3.573 26.187,10.708c7.333,7.125 11,15.76 11,25.896c0,10.516 -3.667,19.344 -11,26.479c-7.323,7.141 -16.052,10.708 -26.187,10.708c-10.141,0 -18.87,-3.568 -26.187,-10.708c-7.323,-7.135 -10.979,-15.964 -10.979,-26.479c0,-10.135 3.656,-18.771 10.979,-25.896c7.318,-7.135 16.047,-10.708 26.187,-10.708Z" style="fill:#ffa8b6;"/></g></svg>